<?xml version="1.0" standalone="no"?>
<!DOCTYPE svg PUBLIC "-//W3C//DTD SVG 20010904//EN"
 "http://www.w3.org/TR/2001/REC-SVG-20010904/DTD/svg10.dtd">
<svg version="1.0" xmlns="http://www.w3.org/2000/svg"
 width="270.000000pt" height="270.000000pt" viewBox="0 0 270.000000 270.000000"
 preserveAspectRatio="xMidYMid meet">
<metadata>
Created by potrace 1.11, written by Peter Selinger 2001-2013
</metadata>
<g transform="translate(0.000000,270.000000) scale(0.100000,-0.100000)"
fill="#000000" stroke="none">
<path d="M0 1350 l0 -1350 1350 0 1350 0 0 1350 0 1350 -1350 0 -1350 0 0
-1350z m690 1260 c0 -5 -4 -10 -10 -10 -5 0 -10 5 -10 10 0 6 5 10 10 10 6 0
10 -4 10 -10z m15 -80 c3 -5 -1 -10 -10 -10 -9 0 -13 5 -10 10 3 6 8 10 10 10
2 0 7 -4 10 -10z m443 -67 c12 -23 42 -212 42 -265 l0 -40 -47 38 c-27 21 -56
46 -65 54 -36 32 -130 83 -157 84 -20 1 -27 5 -24 17 5 17 -67 46 -86 35 -6
-4 -11 -2 -11 4 0 17 84 50 179 70 113 24 158 25 169 3z m352 -18 c47 -8 139
-34 205 -57 149 -53 285 -140 398 -257 43 -44 84 -79 90 -78 7 1 12 -8 12 -21
0 -12 13 -39 29 -59 73 -91 174 -321 194 -443 18 -106 24 -193 14 -186 -12 7
-102 -31 -102 -44 0 -4 -22 -14 -50 -21 -30 -8 -50 -18 -50 -27 0 -8 -6 -12
-15 -8 -8 3 -15 1 -15 -4 0 -5 32 -28 70 -50 39 -22 70 -43 70 -45 0 -8 -159
76 -170 90 -9 10 -4 19 19 36 21 16 29 29 26 43 -2 12 -7 53 -10 91 -6 77 -15
115 -69 282 -20 61 -34 117 -31 125 9 23 -68 140 -147 223 -70 71 -78 84 -78
118 0 21 5 47 11 59 13 23 4 37 -13 20 -7 -7 -26 -12 -44 -12 -33 0 -124 -36
-124 -49 0 -15 53 -169 171 -501 11 -30 38 -116 59 -190 83 -281 140 -451 160
-478 19 -23 31 -28 88 -32 39 -3 67 -10 70 -17 2 -9 -5 -11 -29 -6 -58 11
-114 9 -111 -5 2 -10 -2 -10 -19 0 -19 12 -24 9 -55 -27 -19 -21 -44 -58 -56
-82 -30 -61 -44 -55 -50 21 -6 64 -6 65 -103 182 -53 65 -102 129 -108 143 -5
14 -19 45 -29 68 l-19 41 31 48 c20 32 27 51 20 58 -5 5 -10 18 -10 28 0 11
-5 15 -15 12 -19 -8 -19 3 -1 21 7 8 17 11 22 7 22 -19 -40 66 -122 168 -157
193 -179 219 -188 219 -5 1 -5 -14 -2 -31 4 -18 16 -85 26 -148 10 -63 21
-126 24 -140 3 -14 13 -169 21 -345 19 -380 20 -395 48 -395 20 0 20 0 1 -21
-17 -19 -18 -21 -1 -30 24 -14 21 -32 -3 -24 -26 8 -42 -5 -85 -70 -19 -28
-45 -61 -59 -74 l-24 -23 -11 59 c-21 114 -28 131 -122 286 -51 87 -115 194
-141 240 -48 85 -58 101 -123 201 -21 33 -38 65 -38 72 0 7 -4 11 -8 8 -4 -2
-13 5 -19 16 -6 12 -20 30 -31 41 -21 21 -26 45 -7 33 6 -4 8 -3 5 4 -10 15 3
42 20 42 10 0 12 6 8 23 -6 18 -5 20 6 9 18 -17 63 -16 56 2 -4 10 0 12 14 9
10 -3 16 -10 12 -15 -3 -6 0 -8 8 -6 8 3 13 11 11 17 -1 7 2 10 8 6 5 -3 10
-12 10 -19 0 -14 58 -107 73 -117 5 -4 6 -12 3 -18 -4 -6 -3 -11 3 -11 18 0
23 21 8 33 -8 7 -30 39 -49 72 -31 52 -49 85 -117 214 -7 14 -30 43 -50 64
-31 33 -41 38 -68 33 -18 -2 -33 -1 -33 5 0 5 -11 9 -24 9 -13 0 -26 5 -28 11
-3 8 -36 6 -112 -6 -59 -9 -109 -15 -112 -12 -3 2 19 15 48 29 258 120 409
180 421 169 11 -11 -7 -52 -48 -111 -31 -44 -34 -53 -21 -65 8 -8 30 -48 50
-89 19 -41 55 -108 79 -148 24 -40 129 -241 233 -446 129 -255 190 -366 192
-350 2 13 -13 69 -32 124 -20 56 -49 164 -66 240 -16 77 -41 177 -55 224 -25
82 -25 94 -23 318 l3 233 45 -32 45 -33 -34 37 c-35 37 -89 69 -103 61 -4 -3
-3 -17 3 -32 12 -31 3 -170 -13 -189 -5 -7 -6 -17 -2 -24 4 -7 2 -10 -7 -7 -8
3 -19 -2 -25 -10 -8 -11 -16 -6 -38 30 -16 23 -35 50 -43 58 -8 8 -27 38 -42
65 -15 28 -32 49 -38 48 -6 -1 -16 17 -22 40 -14 55 -11 117 6 117 7 0 13 -6
13 -12 0 -9 3 -9 8 -2 4 6 21 19 38 28 30 18 32 18 73 -3 44 -23 84 -21 74 4
-8 23 25 30 47 10 16 -14 20 -15 20 -4 0 12 2 12 9 0 5 -7 14 -10 21 -6 7 4
11 2 9 -6 -5 -38 1 -51 21 -46 16 4 19 1 16 -23 -2 -22 0 -27 12 -22 12 4 14
1 8 -14 -6 -15 -5 -17 5 -6 17 16 29 15 29 -3 0 -8 -6 -15 -12 -15 -7 0 -2 -6
11 -13 13 -6 29 -21 35 -32 6 -11 16 -23 21 -27 6 -4 1 -8 -10 -8 -12 0 -16
-3 -9 -8 6 -4 17 -18 24 -32 l13 -25 -24 21 c-13 12 -34 24 -47 27 -28 7 -28
6 78 -113 42 -47 89 -103 105 -125 16 -22 57 -74 90 -114 33 -41 85 -112 115
-157 84 -126 193 -274 198 -269 3 3 -17 42 -43 87 -27 46 -59 103 -73 128 -14
25 -44 74 -67 110 -52 82 -217 410 -206 410 5 0 14 -13 21 -30 7 -16 23 -41
36 -55 13 -14 24 -35 24 -45 0 -28 20 -35 21 -8 1 13 2 30 3 38 1 9 11 26 24
40 19 21 24 22 32 10 6 -8 8 -26 7 -40 -2 -14 -2 -19 1 -11 3 11 8 8 19 -10
10 -17 12 -18 8 -4 -4 11 -16 49 -27 85 -33 107 -97 290 -107 308 -9 14 -11
12 -12 -13 -1 -17 -3 -23 -6 -12 -5 20 -14 22 -31 5 -7 -7 -12 -8 -12 -2 0 5
6 16 12 22 22 22 -10 32 -102 33 -124 1 -140 3 -142 14 -3 15 195 53 277 54
108 2 205 13 205 24 0 7 -48 8 -140 4 -88 -4 -141 -3 -145 3 -18 29 -83 41
-230 43 l-149 2 -8 35 c-20 89 -20 108 -1 113 41 11 203 6 283 -8z m-1440 -59
c0 -3 -4 -8 -10 -11 -5 -3 -10 -1 -10 4 0 6 5 11 10 11 6 0 10 -2 10 -4z m400
-16 c0 -5 -4 -10 -10 -10 -5 0 -10 5 -10 10 0 6 5 10 10 10 6 0 10 -4 10 -10z
m425 -63 c114 -63 138 -79 123 -88 -7 -5 -20 -9 -29 -9 -9 0 -33 -12 -54 -26
-24 -16 -58 -28 -91 -31 -45 -5 -51 -8 -42 -22 8 -13 1 -29 -27 -71 -54 -81
-62 -88 -145 -126 -79 -37 -140 -74 -140 -86 0 -4 33 -31 73 -61 114 -85 109
-74 113 -247 3 -106 8 -157 18 -173 7 -12 16 -48 20 -79 3 -31 12 -69 20 -85
8 -15 20 -48 27 -72 18 -59 53 -111 144 -208 41 -45 71 -84 65 -88 -5 -3 -10
-1 -10 6 0 7 -3 10 -6 6 -3 -3 -25 15 -48 40 -22 25 -53 60 -68 77 -16 17 -28
33 -28 37 0 4 -6 9 -14 12 -11 5 -12 0 -2 -24 9 -24 8 -32 -3 -39 -12 -7 -12
-11 -2 -24 7 -8 10 -20 7 -25 -4 -5 -2 -12 3 -16 6 -3 2 -19 -10 -39 -18 -30
-18 -34 -3 -40 8 -3 20 -6 25 -6 13 0 11 28 -2 32 -5 2 -7 11 -3 21 6 17 8 17
25 1 21 -19 26 -64 7 -64 -6 0 -3 -7 8 -15 23 -17 38 -19 28 -3 -4 7 -3 8 5 4
22 -14 1 -25 -43 -23 -31 1 -53 9 -72 27 -38 33 -11 -5 30 -42 16 -16 27 -31
23 -34 -12 -12 -82 53 -140 131 -33 44 -63 79 -67 78 -4 -1 -11 13 -14 32 -4
18 -10 35 -14 37 -4 2 -27 46 -52 98 -52 109 -84 164 -119 203 -25 27 -25 27
-3 27 20 0 22 5 21 48 -1 26 -5 76 -9 112 -5 49 -9 59 -15 43 -4 -13 -12 -23
-17 -23 -13 0 1 42 17 56 8 6 12 19 10 30 -2 10 -4 27 -4 37 -1 9 -5 17 -11
17 -5 0 -7 -8 -3 -17 3 -11 -1 -9 -12 6 -14 19 -16 28 -7 42 16 26 -1 32 -22
8 -28 -34 -30 -14 -2 28 27 39 33 59 16 48 -5 -3 -10 -1 -10 4 0 15 -18 14
-23 -1 -2 -7 -3 1 -1 17 9 63 86 227 131 276 13 14 38 54 57 89 25 50 39 66
62 72 16 4 72 37 124 72 52 36 102 65 110 65 8 0 42 -14 75 -32z m1460 -46 c7
-12 -12 -24 -25 -16 -11 7 -4 25 10 25 5 0 11 -4 15 -9z m-2305 -36 c0 -8 -4
-15 -9 -15 -13 0 -22 16 -14 24 11 11 23 6 23 -9z m1740 -370 c0 -5 -4 -4 -9
4 -7 11 -10 9 -16 -8 -3 -11 -4 -25 0 -30 3 -5 1 -12 -5 -16 -6 -4 -8 -11 -5
-16 4 -5 2 -9 -4 -9 -18 0 -20 16 -10 56 18 69 18 69 34 48 8 -10 14 -23 15
-29z m-878 -220 c-26 -53 -45 -44 -20 10 6 14 17 25 24 25 11 0 10 -8 -4 -35z
m-601 -8 c-10 -9 -11 -8 -5 6 3 10 9 15 12 12 3 -3 0 -11 -7 -18z m78 -63 c3
-16 1 -17 -13 -5 -19 16 -21 34 -3 29 6 -3 14 -13 16 -24z m1721 -14 c0 -5 -4
-10 -10 -10 -5 0 -10 5 -10 10 0 6 5 10 10 10 6 0 10 -4 10 -10z m-1308 -37
c28 -31 68 -88 68 -97 0 -3 -10 -6 -22 -6 -21 -1 -22 -2 -5 -14 26 -20 21 -26
-12 -13 -16 6 -35 22 -42 36 -6 15 -17 37 -23 51 -12 26 -10 70 3 70 4 0 19
-12 33 -27z m58 2 c0 -8 -4 -15 -10 -15 -5 0 -10 7 -10 15 0 8 5 15 10 15 6 0
10 -7 10 -15z m865 -35 c3 -5 1 -10 -4 -10 -6 0 -11 5 -11 10 0 6 2 10 4 10 3
0 8 -4 11 -10z m-905 -105 c14 -8 37 -14 52 -15 42 0 57 -10 75 -47 9 -19 40
-67 69 -107 29 -39 50 -73 48 -75 -2 -3 -11 4 -18 15 -8 10 -20 19 -28 19 -7
0 -19 12 -26 28 -11 23 -16 25 -33 17 -16 -9 -19 -7 -19 11 0 15 5 19 15 15
20 -7 19 9 -2 33 -16 20 -33 19 -33 0 0 -6 4 -8 9 -4 5 3 12 1 16 -5 3 -6 -2
-13 -12 -17 -10 -4 -21 -11 -25 -17 -13 -20 -22 5 -9 26 11 17 11 22 -1 29 -8
5 -9 9 -2 9 7 0 14 9 17 21 5 19 2 20 -40 18 -42 -3 -48 0 -71 29 -27 35 -21
40 18 17z m70 5 c0 -5 -2 -10 -4 -10 -3 0 -8 5 -11 10 -3 6 -1 10 4 10 6 0 11
-4 11 -10z m1580 -59 c-28 -16 -60 -22 -60 -12 0 9 24 17 60 19 13 1 13 0 0
-7z m-1600 -26 c20 -24 6 -28 -15 -5 -10 11 -13 20 -8 20 6 0 16 -7 23 -15z
m-445 -45 c3 -5 1 -10 -4 -10 -6 0 -11 5 -11 10 0 6 2 10 4 10 3 0 8 -4 11
-10z m-15 -70 c0 -5 -5 -10 -11 -10 -5 0 -7 5 -4 10 3 6 8 10 11 10 2 0 4 -4
4 -10z m1840 -48 c0 -21 -7 -48 -16 -61 -21 -30 -38 -14 -24 23 5 15 10 38 10
52 0 15 6 24 15 24 11 0 15 -11 15 -38z m-90 -46 c0 -5 -7 -3 -15 4 -8 7 -15
22 -15 34 1 20 2 20 15 -4 8 -14 14 -29 15 -34z m153 -23 c4 -7 14 -13 22 -13
8 0 20 -9 27 -20 7 -11 19 -20 26 -20 18 0 9 -25 -9 -26 -8 0 -19 4 -26 9 -9
7 -10 1 -3 -22 8 -29 7 -30 -11 -21 -10 6 -19 17 -19 24 0 8 -10 16 -21 19
-14 4 -20 11 -16 20 3 8 -1 23 -8 34 -8 10 -15 26 -15 36 0 15 3 16 23 5 12
-7 26 -19 30 -25z m-1229 3 c22 -1 41 -7 44 -13 6 -21 -64 -15 -100 8 -27 17
-29 19 -8 13 14 -4 43 -8 64 -8z m16 -40 c0 -3 -4 -8 -10 -11 -5 -3 -10 -1
-10 4 0 6 5 11 10 11 6 0 10 -2 10 -4z m1271 -152 c-23 -48 -56 -108 -74 -132
-60 -84 -152 -174 -203 -201 -28 -14 -71 -37 -95 -50 -155 -85 -367 -126 -525
-103 -218 31 -292 76 -302 184 -6 75 13 108 63 108 72 0 93 -23 109 -122 5
-29 13 -39 31 -44 14 -3 31 -4 39 -1 7 3 32 1 55 -5 47 -12 144 8 212 43 22
11 39 16 39 12 0 -5 6 3 13 17 7 13 23 27 37 30 14 4 24 11 23 16 -2 10 20 14
77 15 26 1 30 3 16 8 -11 4 -15 10 -10 14 6 3 16 2 24 -4 8 -5 20 -9 25 -9 6
0 4 4 -4 9 -7 5 -10 14 -7 20 4 6 12 9 17 6 5 -4 9 -1 9 4 0 6 5 11 10 11 6 0
8 -10 4 -24 -3 -14 -1 -27 6 -31 8 -5 11 3 9 27 -2 18 0 39 4 45 10 16 37 5
30 -13 -7 -19 12 -18 31 1 11 12 16 12 23 3 4 -7 8 -17 8 -22 0 -20 22 -15 45
9 18 19 33 25 68 25 35 0 43 -3 38 -15 -18 -44 -16 -48 9 -20 105 116 116 133
157 242 12 32 23 53 25 46 3 -7 -14 -51 -36 -99z m-1281 -23 c0 -9 -29 -30
-163 -115 -49 -31 -87 -62 -85 -69 5 -17 188 -137 209 -137 14 0 19 12 24 58
13 111 23 129 18 32 -6 -106 -17 -127 -59 -108 -13 6 -24 15 -24 20 0 4 -8 8
-17 8 -9 0 -53 25 -98 55 -45 30 -87 55 -93 55 -6 0 -18 -10 -26 -22 -9 -12
-16 -18 -16 -12 0 23 75 86 192 164 122 80 138 88 138 71z m-167 -18 c-7 -2
-19 -2 -25 0 -7 3 -2 5 12 5 14 0 19 -2 13 -5z m-482 -35 c10 -13 18 -28 19
-35 0 -6 -35 -33 -77 -60 -113 -72 -108 -69 -98 -47 4 10 7 30 6 43 -1 18 3
22 18 18 12 -3 18 0 15 7 -5 12 50 81 65 81 5 0 13 3 17 8 11 11 14 9 35 -15z
m420 -11 c-10 -9 -11 -8 -5 6 3 10 9 15 12 12 3 -3 0 -11 -7 -18z m1096 -55
c-17 -19 -114 -58 -123 -50 -5 6 105 64 125 67 11 1 11 -3 -2 -17z m-1017 -16
c0 -3 -4 -8 -10 -11 -5 -3 -10 -1 -10 4 0 6 5 11 10 11 6 0 10 -2 10 -4z m805
-6 c4 -6 -5 -10 -20 -10 -15 0 -24 4 -20 10 3 6 12 10 20 10 8 0 17 -4 20 -10z
m-800 -32 c5 4 5 1 1 -5 -4 -7 -15 -13 -24 -13 -21 -1 21 -38 86 -77 24 -14
41 -27 39 -30 -3 -2 -38 17 -78 44 -40 26 -81 53 -93 60 -20 12 -20 12 4 21
14 6 32 6 41 1 9 -4 20 -5 24 -1z m70 -18 c-6 -9 -9 -9 -16 1 -10 17 0 34 13
21 6 -6 7 -16 3 -22z m-52 -14 c4 -10 0 -12 -14 -9 -10 3 -16 9 -13 14 8 13
21 11 27 -5z m59 -30 c7 4 8 2 4 -5 -9 -13 -26 -5 -25 12 0 9 2 8 6 -1 2 -6
10 -9 15 -6z m-71 -299 c13 -9 -13 1 -58 23 -46 22 -83 42 -83 44 0 7 115 -47
141 -67z m169 -17 c19 -11 31 -19 27 -20 -12 0 -77 28 -77 34 0 10 14 6 50
-14z"/>
<path d="M1013 2453 c-9 -3 -13 -25 -13 -61 l0 -57 83 -62 c61 -46 83 -58 85
-47 7 29 -19 149 -36 168 -22 24 -104 64 -119 59z m37 -90 c0 -13 -4 -23 -10
-23 -5 0 -10 17 -10 38 0 27 3 33 10 22 5 -8 10 -25 10 -37z"/>
<path d="M1115 2430 c3 -5 11 -10 16 -10 6 0 7 5 4 10 -3 6 -11 10 -16 10 -6
0 -7 -4 -4 -10z"/>
<path d="M1921 2183 c-1 -17 4 -35 9 -38 11 -7 11 9 0 45 -8 24 -8 24 -9 -7z"/>
<path d="M2015 2170 c10 -11 20 -20 23 -20 3 0 -3 9 -13 20 -10 11 -20 20 -23
20 -3 0 3 -9 13 -20z"/>
<path d="M1255 2130 c3 -5 11 -10 16 -10 6 0 7 5 4 10 -3 6 -11 10 -16 10 -6
0 -7 -4 -4 -10z"/>
<path d="M1304 2094 c3 -9 6 -21 6 -27 0 -8 3 -8 10 -1 12 12 3 44 -12 44 -6
0 -7 -7 -4 -16z"/>
<path d="M1940 2095 c0 -2 10 -10 23 -16 20 -11 21 -11 8 4 -13 16 -31 23 -31
12z"/>
<path d="M2125 2030 c5 -8 15 -22 24 -31 17 -21 22 -71 7 -81 -6 -4 -1 -8 12
-8 19 0 22 4 17 20 -3 11 -2 20 3 20 5 0 12 9 15 21 3 12 3 18 0 15 -9 -9 -32
13 -29 27 1 7 1 9 -1 5 -3 -4 -16 0 -31 10 -20 13 -24 13 -17 2z"/>
<path d="M1385 1970 c10 -11 20 -18 23 -15 7 6 -18 35 -31 35 -5 0 -2 -9 8
-20z"/>
<path d="M2210 1945 c0 -8 4 -15 9 -15 5 0 13 -9 16 -21 4 -11 9 -18 12 -15 3
3 14 -5 25 -17 l19 -22 -17 28 c-9 15 -21 27 -27 27 -6 0 -7 3 -4 6 8 9 -11
44 -23 44 -6 0 -10 -7 -10 -15z"/>
<path d="M2110 1942 c0 -5 7 -15 15 -22 8 -7 15 -9 15 -6 0 4 -7 14 -15 22 -8
9 -15 11 -15 6z"/>
<path d="M1203 1813 c-15 -5 -17 -23 -4 -23 5 0 11 7 15 15 3 8 4 15 3 14 -1
0 -8 -3 -14 -6z"/>
<path d="M2304 1797 c1 -12 6 -26 11 -30 6 -4 -11 -5 -36 -1 -41 5 -48 3 -63
-17 -9 -13 -16 -31 -16 -39 0 -24 57 -62 80 -55 25 8 54 61 45 82 -4 13 -3 14
10 3 14 -11 14 -10 0 16 -8 16 -15 34 -15 41 0 6 -4 14 -8 17 -5 3 -8 -5 -8
-17z m-24 -70 c0 -14 -20 -37 -32 -37 -4 0 -8 11 -8 25 0 18 5 25 20 25 11 0
20 -6 20 -13z"/>
<path d="M2266 1796 c3 -9 11 -16 16 -16 13 0 5 23 -10 28 -7 2 -10 -2 -6 -12z"/>
<path d="M1777 1776 c-6 -16 2 -28 14 -20 12 7 11 34 0 34 -5 0 -11 -6 -14
-14z"/>
<path d="M2337 1694 c-4 -4 -7 -14 -7 -23 0 -11 3 -12 11 -4 6 6 10 16 7 23
-2 6 -7 8 -11 4z"/>
<path d="M2360 1671 c0 -6 5 -13 10 -16 6 -3 10 1 10 9 0 9 -4 16 -10 16 -5 0
-10 -4 -10 -9z"/>
<path d="M1030 1490 c0 -5 5 -10 11 -10 5 0 7 5 4 10 -3 6 -8 10 -11 10 -2 0
-4 -4 -4 -10z"/>
<path d="M2400 1416 c0 -22 3 -27 11 -19 8 8 8 16 0 30 -9 16 -10 14 -11 -11z"/>
<path d="M1131 1404 c0 -11 3 -14 6 -6 3 7 2 16 -1 19 -3 4 -6 -2 -5 -13z"/>
<path d="M1780 1383 c0 -12 7 -24 16 -27 10 -4 14 -14 11 -26 -3 -13 0 -20 8
-20 8 0 18 -6 22 -14 12 -21 94 -108 98 -104 3 3 -132 189 -150 206 -3 3 -5
-4 -5 -15z"/>
<path d="M1150 1367 c0 -13 24 -57 31 -57 11 0 -1 38 -17 51 -8 6 -14 9 -14 6z"/>
<path d="M1740 1336 c-5 -13 -15 -26 -22 -29 -10 -4 -11 -7 0 -18 10 -11 12
-10 12 3 0 9 7 18 15 22 8 3 15 1 15 -4 0 -6 7 -10 15 -10 8 0 15 -4 15 -10 0
-5 -5 -10 -11 -10 -5 0 -7 -5 -4 -10 4 -6 12 -4 22 5 11 12 12 19 4 29 -6 7
-8 22 -4 31 4 12 3 16 -5 11 -6 -3 -13 -2 -17 4 -10 17 -25 11 -35 -14z"/>
<path d="M1800 1252 c0 -16 28 -34 34 -23 4 6 -3 15 -14 21 -11 6 -20 7 -20 2z"/>
<path d="M1814 1185 c22 -17 40 -20 32 -6 -3 5 -16 11 -28 14 -22 6 -22 5 -4
-8z"/>
<path d="M1815 1100 c4 -6 11 -8 16 -5 14 9 11 15 -7 15 -8 0 -12 -5 -9 -10z"/>
<path d="M432 1935 c0 -16 2 -22 5 -12 2 9 2 23 0 30 -3 6 -5 -1 -5 -18z"/>
<path d="M600 1190 c-23 -23 -24 -37 -9 -77 12 -32 68 -83 85 -76 7 2 15 -1
20 -8 4 -7 3 -10 -3 -6 -5 3 -10 0 -10 -8 0 -23 13 -18 41 16 26 31 27 49 6
88 -6 11 -9 9 -14 -7 -9 -26 -33 -52 -49 -52 -7 0 -2 8 9 18 39 32 37 84 -6
119 -22 18 -47 16 -70 -7z m60 -25 c0 -16 -47 -51 -57 -42 -3 3 -3 18 1 32 5
18 13 25 31 25 15 0 25 -6 25 -15z"/>
<path d="M730 1015 c-11 -13 -10 -14 4 -9 9 3 16 10 16 15 0 13 -6 11 -20 -6z"/>
<path d="M800 1425 c-7 -9 -8 -15 -2 -15 5 0 12 7 16 15 3 8 4 15 2 15 -2 0
-9 -7 -16 -15z"/>
<path d="M2119 671 c-13 -11 -19 -20 -14 -20 14 0 50 28 43 34 -3 3 -16 -3
-29 -14z"/>
<path d="M2059 573 c-13 -16 -12 -17 4 -4 16 13 21 21 13 21 -2 0 -10 -8 -17
-17z"/>
<path d="M1418 413 c7 -3 16 -2 19 1 4 3 -2 6 -13 5 -11 0 -14 -3 -6 -6z"/>
</g>
</svg>
